# Blender 4.0.0
# www.blender.org
o asteroid_0
v 0.077574 -0.878052 0.085708
v 1.049636 -0.397425 0.955839
v -0.200267 -0.514441 1.220650
v -1.375940 -0.476964 -0.217897
v -0.545662 -0.534394 -1.135945
v 0.873985 -0.026359 -0.262486
v 0.212563 0.276587 1.019283
v -1.009991 0.450899 0.619966
v -0.922645 0.671145 -0.566321
v 0.370462 0.449053 -1.081206
v 1.276376 0.443361 0.340364
v -0.064610 1.198089 0.085286
v -0.224764 -0.857199 0.609445
v 0.643959 -0.770045 0.519362
v 0.300887 -0.600969 0.864183
v 1.189247 -0.706449 0.230542
v 0.671401 -0.774955 0.123412
v -0.579467 -0.805309 0.061957
v -1.089391 -0.456048 0.546700
v -0.360581 -0.792048 -0.418206
v -0.823998 -0.480385 -0.740334
v 0.199725 -0.556048 -0.787902
v 1.250856 0.116787 0.342157
v 1.397152 -0.046789 -0.263300
v 0.239671 0.055353 1.496850
v 0.776436 0.045378 1.019505
v -1.276709 0.021502 0.381566
v -1.002515 0.177393 1.093240
v -0.829962 0.121739 -0.960130
v -1.147525 -0.040268 -0.307045
v 0.833132 0.115789 -0.842369
v -0.126591 0.034883 -1.002501
v 1.048345 0.323140 0.578380
v -0.236606 0.812548 0.862480
v -1.172925 0.430194 0.054527
v -0.315342 0.721666 -1.029066
v 0.952898 0.547419 -0.527974
v -0.055770 0.990350 0.709346
v 0.605582 0.977862 0.195468
v -0.598441 0.905627 0.395418
v -0.386887 1.207199 -0.503455
v 0.198177 1.042280 -0.515458
vn 0.0773 -0.9912 -0.1077
vn 0.1863 -0.9324 0.3098
vn -0.1294 -0.9446 0.3018
vn 0.5779 -0.2978 0.7599
vn 0.6667 -0.7269 -0.1648
vn -0.3060 -0.9520 -0.0125
vn -0.1243 -0.9593 -0.2536
vn 0.3073 -0.8914 -0.3332
vn 0.9170 -0.0150 0.3985
vn -0.1193 -0.6380 0.7607
vn 0.2301 -0.7329 0.6402
vn 0.3190 0.1376 0.9377
vn -0.8807 -0.3917 -0.2662
vn -0.6832 -0.6036 0.4110
vn -0.9759 0.0998 0.1942
vn -0.2209 -0.4967 -0.8394
vn -0.6838 -0.5732 -0.4514
vn -0.6195 0.0902 -0.7798
vn 0.3418 -0.7755 -0.5309
vn 0.3954 -0.6528 -0.6461
vn 0.6138 -0.2543 -0.7474
vn 0.5020 0.2988 0.8116
vn -0.6710 0.1723 0.7212
vn -0.8963 0.1769 -0.4066
vn 0.0990 -0.0862 -0.9914
vn 0.8485 -0.2611 -0.4602
vn 0.4959 0.6885 0.5291
vn 0.6084 0.3950 0.6884
vn 0.0650 0.8011 0.5950
vn -0.7181 0.6179 0.3201
vn -0.1371 0.6961 0.7047
vn -0.5212 0.7992 0.2995
vn -0.7765 0.5002 -0.3832
vn -0.8950 0.4450 -0.0302
vn -0.2545 0.9178 -0.3049
vn 0.2910 0.2117 -0.9330
vn -0.1587 0.4498 -0.8789
vn 0.3479 0.8458 -0.4045
vn 0.8206 0.4526 0.3491
vn 0.6699 0.5829 -0.4598
vn 0.4908 0.8513 0.1855
vn 0.0162 0.9901 0.1391
vt 0.181819 0.000000
vt 0.227273 0.078731
vt 0.136365 0.078731
vt 0.272728 0.157461
vt 0.318182 0.078731
vt 0.363637 0.157461
vt 0.909091 0.000000
vt 0.954545 0.078731
vt 0.863636 0.078731
vt 0.727273 0.000000
vt 0.772727 0.078731
vt 0.681818 0.078731
vt 0.545455 0.000000
vt 0.590909 0.078731
vt 0.500000 0.078731
vt 0.318182 0.236191
vt 0.090910 0.157461
vt 0.181819 0.157461
vt 0.136365 0.236191
vt 0.818182 0.157461
vt 0.909091 0.157461
vt 0.863636 0.236191
vt 0.636364 0.157461
vt 0.727273 0.157461
vt 0.681818 0.236191
vt 0.454546 0.157461
vt 0.545455 0.157461
vt 0.500000 0.236191
vt 0.227273 0.236191
vt 0.045455 0.236191
vt 0.772727 0.236191
vt 0.590909 0.236191
vt 0.409092 0.236191
vt 0.181819 0.314921
vt 0.272728 0.314921
vt 0.227273 0.393651
vt 0.000000 0.314921
vt 0.090910 0.314921
vt 0.045455 0.393651
vt 0.727273 0.314921
vt 0.818182 0.314921
vt 0.772727 0.393651
vt 0.545455 0.314921
vt 0.636364 0.314921
vt 0.590909 0.393651
vt 0.363637 0.314921
vt 0.454546 0.314921
vt 0.409092 0.393651
vt 0.500000 0.393651
vt 0.454546 0.472382
vt 0.681818 0.393651
vt 0.636364 0.472382
vt 0.863636 0.393651
vt 0.818182 0.472382
vt 0.909091 0.314921
vt 0.136365 0.393651
vt 0.090910 0.472382
vt 0.318182 0.393651
vt 0.272728 0.472382
vt 0.954545 0.236191
vt 1.000000 0.157461
vt 0.409092 0.078731
vt 0.363637 0.000000
s 1
f 1/1/1 14/2/2 13/3/3
f 2/4/4 14/5/2 16/6/5
f 1/7/1 13/8/3 18/9/6
f 1/10/1 18/11/6 20/12/7
f 1/13/1 20/14/7 17/15/8
f 2/4/4 16/6/5 23/16/9
f 3/17/10 15/18/11 25/19/12
f 4/20/13 19/21/14 27/22/15
f 5/23/16 21/24/17 29/25/18
f 6/26/19 22/27/20 31/28/21
f 2/4/4 23/16/9 26/29/22
f 3/17/10 25/19/12 28/30/23
f 4/20/13 27/22/15 30/31/24
f 5/23/16 29/25/18 32/32/25
f 6/26/19 31/28/21 24/33/26
f 7/34/27 33/35/28 38/36/29
f 8/37/30 34/38/31 40/39/32
f 9/40/33 35/41/34 41/42/35
f 10/43/36 36/44/37 42/45/38
f 11/46/39 37/47/40 39/48/41
f 39/48/41 42/49/38 12/50/42
f 39/48/41 37/47/40 42/49/38
f 37/47/40 10/43/36 42/49/38
f 42/45/38 41/51/35 12/52/42
f 42/45/38 36/44/37 41/51/35
f 36/44/37 9/40/33 41/51/35
f 41/42/35 40/53/32 12/54/42
f 41/42/35 35/41/34 40/53/32
f 35/41/34 8/55/30 40/53/32
f 40/39/32 38/56/29 12/57/42
f 40/39/32 34/38/31 38/56/29
f 34/38/31 7/34/27 38/56/29
f 38/36/29 39/58/41 12/59/42
f 38/36/29 33/35/28 39/58/41
f 33/35/28 11/46/39 39/58/41
f 24/33/26 37/47/40 11/46/39
f 24/33/26 31/28/21 37/47/40
f 31/28/21 10/43/36 37/47/40
f 32/32/25 36/44/37 10/43/36
f 32/32/25 29/25/18 36/44/37
f 29/25/18 9/40/33 36/44/37
f 30/31/24 35/41/34 9/40/33
f 30/31/24 27/22/15 35/41/34
f 27/22/15 8/55/30 35/41/34
f 28/30/23 34/38/31 8/37/30
f 28/30/23 25/19/12 34/38/31
f 25/19/12 7/34/27 34/38/31
f 26/29/22 33/35/28 7/34/27
f 26/29/22 23/16/9 33/35/28
f 23/16/9 11/46/39 33/35/28
f 31/28/21 32/32/25 10/43/36
f 31/28/21 22/27/20 32/32/25
f 22/27/20 5/23/16 32/32/25
f 29/25/18 30/31/24 9/40/33
f 29/25/18 21/24/17 30/31/24
f 21/24/17 4/20/13 30/31/24
f 27/22/15 28/60/23 8/55/30
f 27/22/15 19/21/14 28/60/23
f 19/21/14 3/61/10 28/60/23
f 25/19/12 26/29/22 7/34/27
f 25/19/12 15/18/11 26/29/22
f 15/18/11 2/4/4 26/29/22
f 23/16/9 24/33/26 11/46/39
f 23/16/9 16/6/5 24/33/26
f 16/6/5 6/26/19 24/33/26
f 17/15/8 22/27/20 6/26/19
f 17/15/8 20/14/7 22/27/20
f 20/14/7 5/23/16 22/27/20
f 20/12/7 21/24/17 5/23/16
f 20/12/7 18/11/6 21/24/17
f 18/11/6 4/20/13 21/24/17
f 18/9/6 19/21/14 4/20/13
f 18/9/6 13/8/3 19/21/14
f 13/8/3 3/61/10 19/21/14
f 16/6/5 17/62/8 6/26/19
f 16/6/5 14/5/2 17/62/8
f 14/5/2 1/63/1 17/62/8
f 13/3/3 15/18/11 3/17/10
f 13/3/3 14/2/2 15/18/11
f 14/2/2 2/4/4 15/18/11
